<?xml version="1.0" encoding="utf-8"?>
<!-- Generator: Adobe Illustrator 16.0.0, SVG Export Plug-In . SVG Version: 6.00 Build 0)  -->
<!DOCTYPE svg PUBLIC "-//W3C//DTD SVG 1.1//EN" "http://www.w3.org/Graphics/SVG/1.1/DTD/svg11.dtd">
<svg version="1.1" id="Layer_1" xmlns="http://www.w3.org/2000/svg" xmlns:xlink="http://www.w3.org/1999/xlink" x="0px" y="0px"
	 width="250px" height="250px" viewBox="0 0 250 250" enable-background="new 0 0 250 250" xml:space="preserve">
<path fill="#8DC63F" stroke="#000000" stroke-width="0.4987" stroke-miterlimit="10" d="M184.9,171.6c-0.1-3.5-1.2-6.2-2.4-6.1l0,0
	c0.1-2.5-5.1-10.2-11.8-17.6c-6.5-7.1-24.7-10.5-32.2-11.2c1.4-7.7-3-32.8-4.4-41.6c-1.4-8.8-5.6-16.6-6.7-19.2
	c1.2-0.5,2.7-1.6,3.9-3.2c2-2.7,3.7-7.7,2.7-8.4s-4.6,2.7-6.7,5.5c-2,2.7-3,5.5-2,6.3c0.1,0.1,0.1,0.1,0.2,0.1
	c-1,3.1,2.6,10.1,1,18.9c-1.7,9.4,4.2,35,6.7,41.6c-8.1,2.5-12.8,5.2-22.3,10.9c-9.2,5.2-14.7,6.6-17.3,7.9c-0.9-1.1-4-0.1-6,0.9
	c-3.1,1.4-6.4,5.6-5.9,6.7c0.5,1.1,4.9-0.8,8-2.2c2.7-1.3,3.5-2.7,4.3-3.4c3.2,0.7,11.5-0.5,20.2-3c9-2.5,16.6-7.2,21.8-12.4
	c7,4.5,22.4,7.7,30.1,12c8.4,4.6,13.3,11.3,15.4,12.2c-0.9,1.1-1.6,3.2-1.5,5.6c0.1,3.5,2,8.3,3.2,8.2
	C184.4,179.9,185.1,175,184.9,171.6z"/>
<path fill="none" stroke="#000000" stroke-width="0.4975" stroke-miterlimit="10" d="M126.9,78.9c7.3,16.1,3.9,35.7,8.4,57.8"/>
<path fill="none" stroke="#000000" stroke-width="0.4975" stroke-miterlimit="10" d="M140.1,138.8c24.9,6.2,29.8,11.3,39,22.7"/>
<path fill="none" stroke="#000000" stroke-width="0.4975" stroke-miterlimit="10" d="M131.3,140.7c-14.8,13.6-20.4,12-33.1,14.3"/>
</svg>
