<?xml version="1.0" encoding="utf-8"?>
<!-- Generator: Adobe Illustrator 16.0.0, SVG Export Plug-In . SVG Version: 6.00 Build 0)  -->
<!DOCTYPE svg PUBLIC "-//W3C//DTD SVG 1.1//EN" "http://www.w3.org/Graphics/SVG/1.1/DTD/svg11.dtd">
<svg version="1.1" id="Layer_1" xmlns="http://www.w3.org/2000/svg" xmlns:xlink="http://www.w3.org/1999/xlink" x="0px" y="0px"
	 width="1100.2px" height="275px" viewBox="0 0 1100.2 275" enable-background="new 0 0 1100.2 275" xml:space="preserve">
<image overflow="visible" enable-background="new    " width="271" height="219" xlink:href="mob.flytrap.png"  transform="matrix(1 0 0 1 827.0005 27.5)">
</image>
<path fill="#8DC63F" stroke="#009444" stroke-width="0.6926" stroke-miterlimit="10" d="M486.5,204.3c-0.2-4.8-1.7-8.6-3.3-8.5l0,0
	c0.1-3.5-7.1-14.2-16.4-24.4c-9-9.9-42.1-18.7-52.5-19.6c1.9-10.7,2.8-38.6,0.9-50.9c-1.9-12.2-7.8-23.1-9.3-26.7
	c1.7-0.7,3.7-2.2,5.4-4.4c2.8-3.8,5.1-10.7,3.8-11.7c-1.3-1-6.4,3.8-9.3,7.6c-2.8,3.8-4.1,7.7-2.8,8.7c0.1,0.1,0.2,0.1,0.3,0.2
	c-1.4,4.3,3.6,14,1.4,26.3c-2.3,13,2.9,43.4,6.4,52.6c-11.2,3.5-35,14.1-44.9,20.8c-10.1,6.9-20.4,9.1-24,10.9
	c-1.2-1.5-5.6-0.2-8.4,1.2c-4.3,2-8.9,7.8-8.2,9.3c0.7,1.5,6.8-1.1,11.1-3.1c3.7-1.8,4.8-3.7,6-4.7c4.4,1,16-0.7,28.1-4.1
	c12.5-3.5,37.1-20.9,44.3-28.1c9.7,6.2,34.7,18.3,45.4,24.2c11.7,6.4,18.5,15.7,21.4,17c-1.2,1.5-2.2,4.4-2.1,7.8
	c0.2,4.8,2.8,11.5,4.4,11.4C485.8,215.9,486.8,209,486.5,204.3z"/>
<path fill="none" stroke="#009444" stroke-width="0.6926" stroke-miterlimit="10" d="M405,78.5c10.2,22.4,1.4,42.4,7.7,73.2"/>
<path fill="none" stroke="#009444" stroke-width="0.6926" stroke-miterlimit="10" d="M419.4,154.6c34.7,8.7,46.3,20.4,59,36.2"/>
<path fill="none" stroke="#009444" stroke-width="0.6926" stroke-miterlimit="10" d="M407.2,157.3c-20.6,18.9-41.1,24.6-58.8,27.8"
	/>
<path fill="#8DC63F" stroke="#238203" stroke-width="0.9634" stroke-miterlimit="10" d="M778.1,213.5L778.1,213.5
	c0.2-4.6-10.5-18.6-24.3-31.9c-8-7.8-23.7-13.7-38.2-17.5c-5.5-1.4-6.8-2.8-10.5-5.7c-2.7-2.2,2.7-8.2,1.3-10.4
	c-2.1-1.8-5.6,6.4-8.2-4.1c-1-3.9-8.1-2.6-9-7.5c-3.1-18-8.9-40.1-10.7-50.5C675.7,70,667,55.7,664.7,51c2.5-0.9-6.2-1-4.3,0.3
	c0.1,0.1,0.3,0.1,0.4,0.3c-2.1,5.6,5.3,18.3,2.1,34.4c-2.4,11.9,1.7,38.3,6.1,57.1c0.6,2.4-3,3.1-2.4,5.3c1.3,4.9-2.7,2.4-1.6,4.9
	c-4.6,1.3-1.3,8.9-3.3,9.6c-5,1.8-6,5.3-10.7,7.7c-5.6,2.8-11.8,6.2-20.1,10.6c-19,9.4-30.2,11.9-35.5,14.2c-1.8-2-1,4.8,0.7,3.5
	c6.5,1.3,23.7-0.9,41.6-5.4c13.5-3.3,25.6-8.8,35.2-15.2c2-1.3,3.2,0.3,5-1.1c1.4-1.1,5,4,6.2,2.9c2.2,1.2,2.7,0.8,5.6,2
	c2.5,1,5.6-5.5,8.5-4.6c15.4,5.2,34.9,9.8,46.3,15.3c17.3,8.4,27.4,20.5,31.7,22.2C774.4,216.9,780.5,213.4,778.1,213.5z"/>
<path fill="none" stroke="#238203" stroke-width="0.9611" stroke-miterlimit="10" d="M664.2,55.6c15.1,29.2,8,64.8,17.4,104.9"/>
<path fill="none" stroke="#238203" stroke-width="0.9541" stroke-miterlimit="10" d="M692.1,163.2c51,11.2,60.9,20.4,79.6,40.9"/>
<path fill="none" stroke="#238203" stroke-width="0.9541" stroke-miterlimit="10" d="M674.2,166.7C644,191.1,625,191,599,195.1"/>
<path fill="#8DC63F" stroke="#000000" stroke-width="0.4987" stroke-miterlimit="10" d="M184.9,188.6c-0.1-3.5-1.2-6.2-2.4-6.1l0,0
	c0.1-2.5-5.1-10.2-11.8-17.6c-6.5-7.1-24.7-10.5-32.2-11.2c1.4-7.7-3-32.8-4.4-41.6c-1.4-8.8-5.6-16.6-6.7-19.2
	c1.2-0.5,2.7-1.6,3.9-3.2c2-2.7,3.7-7.7,2.7-8.4c-1-0.7-4.6,2.7-6.7,5.5c-2,2.7-3,5.5-2,6.3c0.1,0.1,0.1,0.1,0.2,0.1
	c-1,3.1,2.6,10.1,1,18.9c-1.7,9.4,4.2,35,6.7,41.6c-8.1,2.5-12.8,5.2-22.3,10.9c-9.2,5.2-14.7,6.6-17.3,7.9c-0.9-1.1-4-0.1-6,0.9
	c-3.1,1.4-6.4,5.6-5.9,6.7c0.5,1.1,4.9-0.8,8-2.2c2.7-1.3,3.5-2.7,4.3-3.4c3.2,0.7,11.5-0.5,20.2-3c9-2.5,16.6-7.2,21.8-12.4
	c7,4.5,22.4,7.7,30.1,12c8.4,4.6,13.3,11.3,15.4,12.2c-0.9,1.1-1.6,3.2-1.5,5.6c0.1,3.5,2,8.3,3.2,8.2
	C184.4,196.9,185.1,192,184.9,188.6z"/>
<path fill="none" stroke="#000000" stroke-width="0.4975" stroke-miterlimit="10" d="M126.9,95.9c7.3,16.1,3.9,35.7,8.4,57.8"/>
<path fill="none" stroke="#000000" stroke-width="0.4975" stroke-miterlimit="10" d="M140.1,155.8c24.9,6.2,29.8,11.3,39,22.7"/>
<path fill="none" stroke="#000000" stroke-width="0.4975" stroke-miterlimit="10" d="M131.3,157.7c-14.8,13.6-20.4,12-33.1,14.3"/>
<g id="Layer_2">
	<polygon fill="#8DC63F" stroke="#FFFFFF" stroke-miterlimit="10" points="918,58 940,38 978.5,38 992,143 1078.5,143 1091.5,179.5 
		1071.5,204.1 969.5,173.5 874.5,227.5 834,204.1 837.5,152.5 933,146 	"/>
</g>
<ellipse transform="matrix(0.98 -0.1991 0.1991 0.98 -27.5754 121.2452)" fill="#8DC63F" stroke="#238203" stroke-width="0.8112" stroke-miterlimit="10" cx="589.1" cy="197.7" rx="15.9" ry="7.8"/>
<ellipse transform="matrix(0.5886 0.8084 -0.8084 0.5886 494.6501 -539.1823)" fill="#8DC63F" stroke="#238203" stroke-width="0.8112" stroke-miterlimit="10" cx="777.1" cy="216.4" rx="15.9" ry="7.8"/>
<ellipse transform="matrix(0.3557 0.9346 -0.9346 0.3557 474.3091 -584.5132)" fill="#8DC63F" stroke="#238203" stroke-width="0.8112" stroke-miterlimit="10" cx="661.1" cy="51.7" rx="15.9" ry="7.8"/>
</svg>
