<?xml version="1.0" encoding="utf-8"?>
<!-- Generator: Adobe Illustrator 16.0.0, SVG Export Plug-In . SVG Version: 6.00 Build 0)  -->
<!DOCTYPE svg PUBLIC "-//W3C//DTD SVG 1.1//EN" "http://www.w3.org/Graphics/SVG/1.1/DTD/svg11.dtd">
<svg version="1.1" id="Layer_1" xmlns="http://www.w3.org/2000/svg" xmlns:xlink="http://www.w3.org/1999/xlink" x="0px" y="0px"
	 width="250px" height="250px" viewBox="0 0 250 250" enable-background="new 0 0 250 250" xml:space="preserve">
<path fill="#8DC63F" stroke="#009444" stroke-width="0.6926" stroke-miterlimit="10" d="M198.1,177.2c-0.2-4.8-1.7-8.6-3.3-8.5
	c0,0,0,0,0,0c0.1-3.5-7.1-14.2-16.4-24.4c-9-9.9-42.1-18.7-52.5-19.6c1.9-10.7,2.8-38.6,0.9-50.9c-1.9-12.2-7.8-23.1-9.3-26.7
	c1.7-0.7,3.7-2.2,5.4-4.4c2.8-3.8,5.1-10.7,3.8-11.7c-1.3-1-6.4,3.8-9.3,7.6c-2.8,3.8-4.1,7.7-2.8,8.7c0.1,0.1,0.2,0.1,0.3,0.2
	c-1.4,4.3,3.6,14,1.4,26.3c-2.3,13,2.9,43.4,6.4,52.6c-11.2,3.5-35,14.1-44.9,20.8c-10.1,6.9-20.4,9.1-24,10.9
	c-1.2-1.5-5.6-0.2-8.4,1.2c-4.3,2-8.9,7.8-8.2,9.3s6.8-1.1,11.1-3.1c3.7-1.8,4.8-3.7,6-4.7c4.4,1,16-0.7,28.1-4.1
	c12.5-3.5,37.1-20.9,44.3-28.1c9.7,6.2,34.7,18.3,45.4,24.2c11.7,6.4,18.5,15.7,21.4,17c-1.2,1.5-2.2,4.4-2.1,7.8
	c0.2,4.8,2.8,11.5,4.4,11.4C197.4,188.8,198.4,181.9,198.1,177.2z"/>
<path fill="none" stroke="#009444" stroke-width="0.6926" stroke-miterlimit="10" d="M116.6,51.4c10.2,22.4,1.4,42.4,7.7,73.2"/>
<path fill="none" stroke="#009444" stroke-width="0.6926" stroke-miterlimit="10" d="M131,127.5c34.7,8.7,46.3,20.4,59,36.2"/>
<path fill="none" stroke="#009444" stroke-width="0.6926" stroke-miterlimit="10" d="M118.8,130.2C98.2,149.1,77.7,154.8,60,158"/>
</svg>
