<?xml version="1.0" encoding="utf-8"?>
<!-- Generator: Adobe Illustrator 16.0.0, SVG Export Plug-In . SVG Version: 6.00 Build 0)  -->
<!DOCTYPE svg PUBLIC "-//W3C//DTD SVG 1.1//EN" "http://www.w3.org/Graphics/SVG/1.1/DTD/svg11.dtd">
<svg version="1.1" id="Layer_1" xmlns="http://www.w3.org/2000/svg" xmlns:xlink="http://www.w3.org/1999/xlink" x="0px" y="0px"
	 width="250px" height="250px" viewBox="0 0 250 250" enable-background="new 0 0 250 250" xml:space="preserve">
<polyline fill="#8DC63F" stroke="#17E007" stroke-width="0.6344" stroke-miterlimit="10" points="22,177.2 19.6,174.3 22.2,175.9 
	23.4,174.3 21.8,172.4 24.2,173.4 25.3,172.4 24.1,170.4 26.4,171.6 27.7,170.7 26.7,168.9 28.7,170.1 30,169.4 29.3,167.5 
	31.2,168.8 32.4,168.3 32.4,165.9 33.7,167.7 35.1,167.2 35.5,164.9 36.7,166.7 38.2,166.3 38.6,163.7 39.3,166 40.6,165.7 
	41,162.9 42.1,165.4 43.6,165.1 44,162.9 44.9,164.9 46.6,164.8 47.2,162.6 47.6,164.7 49.6,164.7 50.2,163 50.7,164.7 52.2,164.8 
	53.1,163.4 53.1,164.9 54.6,165.1 55.6,163.3 55.6,165.3 56.9,165.9 58.1,164.3 57.8,166.1 58.6,166.8 60.5,165.6 "/>
<polyline fill="#8DC63F" stroke="#17E007" stroke-width="0.6344" stroke-miterlimit="10" points="65.8,181 68.1,184 65.6,182.3 
	64.3,183.9 65.9,185.9 63.5,184.8 62.4,185.8 63.6,187.8 61.3,186.6 60.1,187.5 61,189.3 59,188.1 57.7,188.8 58.4,190.8 
	56.6,189.4 55.3,189.9 55.3,192.3 54,190.4 52.6,190.9 52.2,193.3 51,191.4 49.5,191.9 49.1,194.4 48.4,192.2 47.1,192.5 
	46.6,195.3 45.5,192.8 44,193 43.7,195.2 42.7,193.2 41,193.3 40.4,195.5 40,193.4 38.1,193.4 37.5,195.1 36.9,193.4 35.5,193.3 
	34.6,194.7 34.6,193.1 33.1,192.9 32,194.8 32,192.8 30.8,192.2 29.5,193.7 29.8,191.9 29.1,191.2 27.2,192.4 "/>
<path fill="#8DC63F" stroke="#238203" stroke-width="0.9634" stroke-miterlimit="10" d="M218.7,194.7L218.7,194.7
	c0.2-4.6-10.5-18.6-24.3-31.9c-8-7.8-23.7-13.7-38.2-17.5c-5.5-1.4-6.8-2.8-10.5-5.7c-2.7-2.2,2.7-8.2,1.3-10.4
	c-2.1-1.8-5.6,6.4-8.2-4.1c-1-3.9-8.1-2.6-9-7.5c-3.1-18-8.9-40.1-10.7-50.5c-2.8-15.9-11.5-30.2-13.8-34.9c2.5-0.9-6.2-1-4.3,0.3
	c0.1,0.1,0.3,0.1,0.4,0.3c-2.1,5.6,5.3,18.3,2.1,34.4c-2.4,11.9,1.7,38.3,6.1,57.1c0.6,2.4-3,3.1-2.4,5.3c1.3,4.9-2.7,2.4-1.6,4.9
	c-4.6,1.3-1.3,8.9-3.3,9.6c-5,1.8-6,5.3-10.7,7.7c-5.6,2.8-11.8,6.2-20.1,10.6c-19,9.4-30.2,11.9-35.5,14.2c-1.8-2-1,4.8,0.7,3.5
	c6.5,1.3,23.7-0.9,41.6-5.4c13.5-3.3,25.6-8.8,35.2-15.2c2-1.3,3.2,0.3,5-1.1c1.4-1.1,5,4,6.2,2.9c2.2,1.2,2.7,0.8,5.6,2
	c2.5,1,5.6-5.5,8.5-4.6c15.4,5.2,34.9,9.8,46.3,15.3c17.3,8.4,27.4,20.5,31.7,22.2C215,198.1,221.1,194.6,218.7,194.7z"/>
<polygon fill="#D61253" stroke="#17E007" stroke-width="1.1241" stroke-miterlimit="10" points="203.2,182.1 211.7,177.5 
	237.4,207.6 226,213.8 "/>
<path fill="none" stroke="#238203" stroke-width="0.9611" stroke-miterlimit="10" d="M104.8,36.8c15.1,29.2,8,64.8,17.4,104.9"/>
<path fill="none" stroke="#238203" stroke-width="0.9541" stroke-miterlimit="10" d="M132.7,144.4c51,11.2,60.9,20.4,79.6,40.9"/>
<path fill="none" stroke="#238203" stroke-width="0.9541" stroke-miterlimit="10" d="M114.8,147.9c-30.2,24.4-49.2,24.3-75.2,28.4"
	/>
<g>
	<path fill="#EE204B" stroke="#C6B705" stroke-width="0.9879" stroke-miterlimit="10" d="M59.9,169.1c-1.3-4.3-10.9-5.6-21.5-2.9
		c-10.6,2.7-18.1,8.3-16.8,12.6c1.3,4.3,11.3,2.7,21.9,0C54,176.1,61.2,173.3,59.9,169.1z"/>
	<path fill="#EE204B" stroke="#C6B705" stroke-width="0.9879" stroke-miterlimit="10" d="M66,179.6c-1.3-4.3-10.5-3.7-21.1-1.1
		c-10.6,2.7-18.6,6.5-17.3,10.8c1.3,4.3,11,4.7,21.5,2C59.8,188.7,67.3,183.9,66,179.6z"/>
</g>
<polyline fill="#8DC63F" stroke="#17E007" stroke-width="0.6719" stroke-miterlimit="10" points="108.4,10.6 112.2,8.7 109.9,10.9 
	111.7,12.2 114.2,10.9 112.8,13 113.9,14.1 116.4,13.2 114.7,15.1 115.7,16.4 117.9,15.6 116.3,17.4 117.1,18.7 119.5,18.2 
	117.6,19.8 118.2,21 121.1,21.2 118.7,22.3 119.2,23.6 122,24.2 119.7,25.1 120.1,26.5 123.1,27.1 120.3,27.6 120.6,28.8 
	123.9,29.5 120.8,30.2 121,31.7 123.7,32.2 121.1,32.9 121.1,34.5 123.7,35.2 121.1,35.4 121,37.2 122.9,37.9 120.8,38.3 
	120.6,39.6 122.2,40.5 120.4,40.4 120,41.8 122.1,42.9 119.7,42.8 118.9,43.8 120.6,45.1 118.5,44.7 117.6,45.4 118.8,47.2 "/>
<polyline fill="#8DC63F" stroke="#17E007" stroke-width="0.6719" stroke-miterlimit="10" points="99.8,50.7 96,52.6 98.2,50.4 
	96.4,49.1 94,50.4 95.4,48.3 94.3,47.2 91.8,48.1 93.5,46.1 92.6,44.9 90.3,45.6 91.9,43.8 91.2,42.6 88.8,43 90.6,41.5 90,40.2 
	87.2,40 89.5,39 89.1,37.6 86.3,37.1 88.6,36.1 88.2,34.7 85.2,34.1 88,33.6 87.7,32.4 84.4,31.7 87.5,31 87.4,29.6 84.7,29 
	87.3,28.3 87.3,26.8 84.7,26 87.3,25.8 87.4,24 85.5,23.3 87.6,23 87.8,21.6 86.2,20.7 88.1,20.8 88.4,19.5 86.3,18.3 88.7,18.5 
	89.6,17.4 87.9,16.1 90,16.5 90.9,15.9 89.7,14.1 "/>
<g>
	<path fill="#EE204B" stroke="#CEBF00" stroke-width="1.0483" stroke-miterlimit="10" d="M114.8,46.2c5.3-0.8,7.7-9.6,5.4-19.6
		c-2.3-10-8.5-17.4-13.8-16.6c-5.3,0.8-4.2,10.1-1.9,20.1C106.8,40.2,109.5,47,114.8,46.2z"/>
	<path fill="#EE204B" stroke="#CEBF00" stroke-width="1.0483" stroke-miterlimit="10" d="M101.4,50.8c5.3-0.8,5.5-9.3,3.2-19.3
		c-2.3-10-6.2-17.7-11.5-16.9c-5.3,0.8-6.7,9.7-4.4,19.7C91,44.3,96.1,51.6,101.4,50.8z"/>
</g>
<g>
	<path fill="#8DC63F" stroke="#B3CC00" stroke-width="0.7967" stroke-miterlimit="10" d="M203.9,176.5c2.3,0.2,3.9,0.2,3.9,0.2
		c0,0.5,0.1,0.7,0.1,1.2c-1.1,0.5-1.6,0.8-2.6,1.3c1.4-0.2,2.1-0.3,3.5-0.4c0.3,0.6,0.4,0.8,0.6,1.4c-1,0.7-1.6,1-2.6,1.6
		c1.4-0.3,2.1-0.4,3.6-0.7c0.5,0.5,0.8,0.8,1.2,1.3c-0.8,0.5-1.2,0.7-2,1.2c1.1-0.2,1.7-0.2,2.8-0.4c0.5,0.5,0.7,0.7,1.2,1.3
		c-0.8,0.7-1.1,1.1-1.9,1.8c1.1-0.3,1.7-0.5,2.8-0.8c0.7,0.7,1,1,1.6,1.7c-1.1,0.7-1.7,1.1-2.8,1.8c1.4-0.4,2.1-0.6,3.6-1
		c0.6,0.6,0.8,0.9,1.4,1.5c-1,0.9-1.5,1.4-2.5,2.3c1.4-0.5,2.1-0.7,3.5-1.1c0.5,0.5,0.7,0.8,1.2,1.3c-1.3,1-1.9,1.5-3.2,2.6
		c1.7-0.5,2.6-0.8,4.4-1.2c0.4,0.5,0.6,0.7,1,1.1c-1.3,0.8-1.9,1.2-3.2,2c1.6-0.4,2.4-0.6,4-1c0.5,0.5,0.7,0.8,1.1,1.3
		c-1,0.9-1.5,1.3-2.5,2.1c1.5-0.3,2.2-0.4,3.6-0.7c0.4,0.5,0.6,0.8,1,1.3c-1.1,0.9-1.6,1.3-2.8,2.2c1.5-0.4,2.2-0.6,3.7-1
		c0.4,0.5,0.6,0.7,1,1.2c-0.8,1-1.3,1.5-2.2,2.6c1.2-0.6,1.8-0.9,3-1.4c0.4,0.5,0.6,0.8,1,1.3c-0.8,1.1-1.2,1.7-2,2.8
		c1.2-0.7,1.8-1,2.9-1.7c0.5,0.5,0.7,0.8,1.1,1.3c-0.9,1.2-1.4,1.8-2.4,3c1.4-0.7,2-1.1,3.4-1.9c0.5,0.5,0.7,0.7,1.2,1.2
		c-0.9,1.3-1.4,1.9-2.4,3.2c1.4-0.9,2.1-1.3,3.5-2.3c0.8,0.5,1.2,0.8,2,1.4c-1.4,1.4-2.2,2.1-3.7,3.5c0,0,4.8-2.7,5.5-3.3
		C246.5,204.2,216.7,171.2,203.9,176.5z"/>
</g>
<g>
	<path fill="#8DC63F" stroke="#B8D105" stroke-width="0.7967" stroke-miterlimit="10" d="M204.9,174.6c-0.8,1.8-1.3,3.1-1.3,3.1
		c0.5,0.2,0.7,0.3,1.2,0.5c1-0.6,1.5-0.9,2.5-1.4c-0.8,1-1.1,1.5-1.8,2.5c0.5,0.4,0.8,0.6,1.3,1c1.1-0.5,1.7-0.8,2.9-1.3
		c-0.9,1-1.3,1.4-2.2,2.4c0.4,0.6,0.6,0.9,1,1.5c0.9-0.4,1.3-0.6,2.2-1c-0.6,0.8-0.9,1.2-1.5,1.9c0.4,0.6,0.5,0.8,0.9,1.4
		c1.1-0.3,1.6-0.4,2.7-0.7c-0.8,0.7-1.2,1.1-2,1.8c0.5,0.8,0.7,1.2,1.2,1.9c1.3-0.5,1.9-0.8,3.1-1.4c-1,0.9-1.5,1.4-2.5,2.3
		c0.4,0.7,0.6,1,1.1,1.6c1.4-0.4,2.1-0.6,3.5-1c-1.1,0.9-1.6,1.3-2.6,2.2c0.4,0.6,0.6,0.9,1,1.4c1.7-0.6,2.5-0.8,4.1-1.4
		c-1.3,1.1-1.9,1.7-3.1,2.8c0.3,0.5,0.5,0.7,0.9,1.2c1.4-0.6,2.1-0.9,3.5-1.6c-1.1,1-1.6,1.6-2.7,2.6c0.4,0.6,0.6,0.8,1,1.4
		c1.4-0.4,2-0.6,3.4-1c-0.9,1-1.4,1.5-2.2,2.5c0.4,0.5,0.6,0.8,1.1,1.3c1.4-0.5,2.1-0.7,3.6-1.2c-1,1-1.6,1.4-2.6,2.4
		c0.4,0.5,0.6,0.7,1,1.2c1.5-0.2,2.2-0.3,3.7-0.6c-1.1,0.7-1.7,1-2.8,1.7c0.4,0.5,0.6,0.8,1,1.3c1.6-0.1,2.3-0.2,3.9-0.4
		c-1.2,0.6-1.8,0.9-3,1.5c0.4,0.6,0.6,0.8,1,1.4c1.7-0.2,2.6-0.3,4.3-0.6c-1.4,0.7-2.1,1.1-3.4,1.8c0.3,0.6,0.5,0.9,0.8,1.4
		c1.8-0.2,2.7-0.3,4.5-0.5c-1.6,0.7-2.3,1-3.9,1.7c0.3,0.8,0.4,1.2,0.8,2.1c2.2-0.5,3.2-0.8,5.3-1.4c0,0-4.9,2.6-5.9,2.8
		C218.2,217.4,193.6,184.8,204.9,174.6z"/>
</g>
</svg>
