<?xml version="1.0" encoding="utf-8"?>
<!-- Generator: Adobe Illustrator 16.0.0, SVG Export Plug-In . SVG Version: 6.00 Build 0)  -->
<!DOCTYPE svg PUBLIC "-//W3C//DTD SVG 1.1//EN" "http://www.w3.org/Graphics/SVG/1.1/DTD/svg11.dtd">
<svg version="1.1" id="Layer_2" xmlns="http://www.w3.org/2000/svg" xmlns:xlink="http://www.w3.org/1999/xlink" x="0px" y="0px"
	 width="400px" height="100px" viewBox="0 0 400 100" enable-background="new 0 0 400 100" xml:space="preserve">
<polyline fill="#8DC63F" stroke="#17E007" stroke-width="1.2371" stroke-miterlimit="10" points="163.6,14.9 170.8,13 166,16.1 
	168.5,19.4 173.4,18.1 170.1,21.4 171.5,23.9 176.2,23.4 172.5,26.2 173.6,29.1 177.7,28.6 174.3,31.2 175.1,34 179.4,34.2 
	175.5,36.3 176,38.8 180.9,40.5 176.3,41.5 176.6,44.2 181.2,46.6 176.9,47.2 177,50 181.9,52.5 176.9,52.2 176.9,54.6 182.2,57.4 
	176.7,57.3 176.4,60.2 180.8,62.4 176.1,62.5 175.4,65.5 179.5,68 175,67.2 174.1,70.5 177.1,72.7 173.3,72.5 172.4,74.8 
	174.8,77.2 171.8,76.2 170.5,78.7 173.6,81.7 169.6,80.4 167.8,81.9 170.2,85.2 166.7,83.5 164.9,84.4 166.2,88.3 "/>
<polyline fill="#8DC63F" stroke="#17E007" stroke-width="1.2371" stroke-miterlimit="10" points="132.4,84 125.1,85.9 129.7,82.7 
	127.2,79.5 122.6,80.8 125.8,77.5 124.4,75 119.8,75.5 123.5,72.5 122.5,69.9 118.2,70.2 121.7,67.5 121,64.9 116.8,64.6 
	120.4,62.6 120,59.9 115.3,58.2 119.6,57.4 119.5,54.6 114.9,52.4 119.3,51.6 119.2,48.7 114.3,46.3 119.3,46.6 119.2,44.2 
	113.9,41.4 119.5,41.5 119.9,38.8 115.5,36.5 120.3,36.3 120.9,33.5 116.8,30.8 121.3,31.6 122.2,28.3 119.2,26.1 123,26.5 
	123.9,24 121.5,21.6 124.7,22.6 125.8,20.3 122.7,17.1 126.7,18.6 128.7,16.9 126.3,13.7 129.7,15.4 131.5,14.7 130.2,10.8 "/>
<path fill="#EE204B" stroke="#CEBF00" stroke-width="1.9301" stroke-miterlimit="10" d="M159.8,84.6c9.4,0.9,17.1-14.5,17.3-34.3
	c0.2-19.8-7.3-36.5-16.7-37.4c-9.4-0.9-11.3,17-11.5,36.9C148.6,69.7,150.4,83.7,159.8,84.6z"/>
<path fill="#EE204B" stroke="#CEBF00" stroke-width="1.9301" stroke-miterlimit="10" d="M135,84.9c9.4,0.9,13.2-15,13.4-34.8
	c0.2-19.8-3.3-36-12.7-36.9c-9.4-0.9-15.4,15.2-15.6,35C120,68,125.7,84,135,84.9z"/>
<polyline fill="#8DC63F" stroke="#17E007" stroke-width="1.3469" stroke-miterlimit="10" points="66.4,14.9 75.1,13 69.3,16.1 
	72.3,19.4 78,18.1 74.2,21.4 75.9,23.9 81.4,23.4 77,26.2 78.4,29.1 83.2,28.6 79.1,31.2 80.1,34 85.2,34.2 80.6,36.3 81.2,38.8 
	87,40.5 81.6,41.5 81.9,44.2 87.3,46.6 82.2,47.2 82.3,50 88.1,52.5 82.2,52.2 82.2,54.6 88.6,57.4 82,57.3 81.6,60.2 86.8,62.4 
	81.2,62.5 80.5,65.5 85.4,68 80,67.2 78.9,70.5 82.4,72.7 78,72.5 77,74.8 79.7,77.2 76.2,76.2 74.7,78.7 78.4,81.7 73.6,80.4 
	71.5,81.9 74.3,85.2 70.2,83.5 68,84.4 69.6,88.3 "/>
<polyline fill="#8DC63F" stroke="#17E007" stroke-width="1.3469" stroke-miterlimit="10" points="29.4,84 20.8,85.9 26.3,82.7 
	23.3,79.5 17.9,80.8 21.7,77.5 20,75 14.5,75.5 18.9,72.5 17.7,69.9 12.7,70.2 16.8,67.5 16,64.9 10.9,64.6 15.3,62.6 14.7,59.9 
	9.2,58.2 14.3,57.4 14.2,54.6 8.8,52.4 13.9,51.6 13.8,48.7 8,46.3 13.9,46.6 13.9,44.2 7.6,41.4 14.2,41.5 14.7,38.8 9.5,36.5 
	15.1,36.3 15.8,33.5 11,30.8 16.3,31.6 17.4,28.3 13.9,26.1 18.3,26.5 19.4,24 16.6,21.6 20.4,22.6 21.6,20.3 18,17.1 22.7,18.6 
	25.1,16.9 22.3,13.7 26.3,15.4 28.4,14.7 26.9,10.8 "/>
<path fill="#EE204B" stroke="#CEBF00" stroke-width="2.1014" stroke-miterlimit="10" d="M62,84.6c11.1,0.9,20.3-14.5,20.5-34.3
	c0.2-19.8-8.7-36.5-19.8-37.4C51.6,12,49.3,29.9,49,49.7C48.7,69.7,50.9,83.7,62,84.6z"/>
<path fill="#EE204B" stroke="#CEBF00" stroke-width="2.1014" stroke-miterlimit="10" d="M32.6,84.9c11.1,0.9,15.7-15,15.9-34.8
	c0.2-19.8-3.9-36-15-36.9c-11.1-0.9-18.3,15.2-18.5,35C14.8,68,21.5,84,32.6,84.9z"/>
<polygon fill="#D61253" stroke="#17E007" stroke-width="1.5142" stroke-miterlimit="10" points="343.5,19.8 355.2,22.3 356.6,80.5 
	340.9,77.1 "/>
<g>
	<path fill="#8DC63F" stroke="#B3CC00" stroke-width="1.0732" stroke-miterlimit="10" d="M348.5,14c2.1,2.4,3.6,3.8,3.6,3.8
		c-0.4,0.6-0.4,0.9-0.8,1.5c-1.4-0.4-2.2-0.6-3.5-0.9c1.5,1.1,2.3,1.6,3.7,2.8c-0.2,1-0.2,1.3-0.5,2.2c-1.5-0.1-2.3-0.3-3.7-0.6
		c1.6,0.9,2.3,1.5,4,2.5c0.1,1,0.2,1.7,0.1,2.6c-1.2-0.2-1.7-0.3-2.9-0.5c1.2,0.8,1.8,1.3,3,2.1c0.1,1,0.1,1.4,0.2,2.6
		c-1.3,0.1-1.9,0.2-3.2,0.3c1.3,0.7,2,1,3.3,1.7c0.1,1.4,0.2,2.1,0.2,3.4c-1.6-0.2-2.5-0.3-4.1-0.5c1.7,0.8,2.5,1.2,4.2,2.2
		c0.1,1.2,0.1,1.8,0.2,3c-1.7,0.1-2.5,0.2-4.2,0.3c1.7,0.7,2.6,1.1,4.2,2c0.1,1,0.1,1.6,0.1,2.6c-2-0.1-3,0-5.1,0
		c2,1,3.1,1.5,5.2,2.7c0,0.9,0,1.4,0.1,2.2c-1.9-0.3-2.8-0.4-4.6-0.7c1.8,1,2.8,1.5,4.6,2.5c0.1,1,0.1,1.6,0.1,2.5
		c-1.7,0.1-2.4,0.1-4,0.1c1.7,1,2.4,1.6,4,2.5c0,0.9,0,1.5,0,2.4c-1.8,0-2.5,0-4.4-0.1c1.8,0.9,2.6,1.3,4.3,2.3c0,0.9,0,1.4,0,2.3
		c-1.5,0.4-2.4,0.5-4.1,0.9c1.6,0.4,2.4,0.6,4,1.2c0,0.9,0,1.5,0,2.4c-1.6,0.5-2.5,0.8-4.1,1.4c1.7,0.3,2.5,0.5,4.1,0.7
		c0.1,1,0.1,1.6,0.1,2.5c-1.8,0.5-2.7,0.8-4.6,1.2c1.9,0.5,2.8,0.6,4.7,1c0.1,1,0.1,1.4,0.2,2.5c-1.9,0.7-2.8,0.9-4.8,1.5
		c2,0.3,3,0.4,5.1,0.6c0.4,1.3,0.5,2,0.8,3.4c-2.4,0.3-3.7,0.4-6.3,0.6c0,0,6.7,1.3,7.8,1.3C368,85,367.1,14.8,348.5,14z"/>
</g>
<g>
	<path fill="#8DC63F" stroke="#B8D105" stroke-width="1.0732" stroke-miterlimit="10" d="M350.9,12.7c-2.2,1.3-3.6,2.4-3.6,2.4
		c0.3,0.7,0.4,1,0.8,1.7c1.4,0.2,2.1,0.4,3.5,0.7c-1.5,0.4-2.2,0.7-3.7,1.2c0.2,0.9,0.3,1.4,0.5,2.3c1.4,0.4,2.3,0.7,3.8,1.2
		c-1.6,0.3-2.3,0.4-4,0.7c-0.1,1.1-0.1,1.6-0.2,2.6c1.2,0.4,1.7,0.5,2.9,0.9c-1.2,0.4-1.8,0.5-2.9,0.8c-0.1,1.1-0.1,1.4-0.2,2.4
		c1.3,0.7,1.8,1,3.1,1.7c-1.3,0.1-2,0.2-3.3,0.2c-0.1,1.4-0.3,2-0.3,3.3c1.6,0.6,2.4,0.8,4.1,1.3c-1.7,0.1-2.5,0.2-4.2,0.3
		c-0.2,1.2-0.2,1.7-0.2,2.8c1.7,0.8,2.5,1.2,4.1,2.1c-1.8,0-2.5,0-4.2,0.1c-0.1,1.1-0.1,1.6-0.1,2.5c2.1,0.9,3,1.4,5,2.2
		c-2.1,0.1-3.1,0.2-5.1,0.4c-0.1,0.8-0.1,1.3-0.1,2.2c1.8,0.6,2.7,0.9,4.6,1.4c-1.8,0.1-2.8,0.4-4.6,0.5c-0.1,1.1,0,1.5-0.1,2.5
		c1.7,0.8,2.4,1.2,4,2c-1.6,0.3-2.5,0.4-4,0.8c0,0.9,0,1.5,0,2.5c1.7,0.7,2.6,1.1,4.4,1.9c-1.7,0.2-2.6,0.1-4.4,0.4
		c0,0.9,0,1.4,0,2.3c1.6,1.2,2.3,1.7,4,2.7c-1.6-0.2-2.4-0.4-4-0.6c0,0.9,0,1.5,0,2.4c1.6,1.4,2.4,1.9,4.1,3.1c-1.6-0.4-2.4-0.6-4-1
		c-0.1,1.1,0,1.5-0.1,2.5c1.8,1.3,2.7,2.1,4.6,3.3c-1.9-0.5-2.9-0.7-4.7-1.1c-0.2,1-0.2,1.5-0.3,2.3c1.9,1.4,2.8,2.1,4.7,3.6
		c-2.1-0.7-3-1-5.1-1.6c-0.3,1.2-0.5,1.7-0.9,3.1c2.5,1.5,3.7,2,6.2,3.3c0,0-5.9,1-7,0.3C331,80.2,332.2,14,350.9,12.7z"/>
</g>
<path fill="#D61253" stroke="#17E007" stroke-width="1.5142" stroke-miterlimit="10" d="M242.5,22.8c2-5.9,12.3-10.1,18.2-0.4
	s6,53.4,3,57.2s-19,5.4-23.8-1.4S240.5,28.7,242.5,22.8z"/>
<g>
	<path fill="#8DC63F" stroke="#B3CC00" stroke-width="1.0732" stroke-miterlimit="10" d="M255.5,14c2.1,2.4,3.6,3.8,3.6,3.8
		c-0.4,0.6-0.4,0.9-0.8,1.5c-1.4-0.4-2.2-0.6-3.5-0.9c1.5,1.1,2.3,1.6,3.7,2.8c-0.2,1-0.2,1.3-0.5,2.2c-1.5-0.1-2.3-0.3-3.7-0.6
		c1.6,0.9,2.3,1.5,4,2.5c0.1,1,0.2,1.7,0.1,2.6c-1.2-0.2-1.7-0.3-2.9-0.5c1.2,0.8,1.8,1.3,3,2.1c0.1,1,0.1,1.4,0.2,2.6
		c-1.3,0.1-1.9,0.2-3.2,0.3c1.3,0.7,2,1,3.3,1.7c0.1,1.4,0.2,2.1,0.2,3.4c-1.6-0.2-2.5-0.3-4.1-0.5c1.7,0.8,2.5,1.2,4.2,2.2
		c0.1,1.2,0.1,1.8,0.2,3c-1.7,0.1-2.5,0.2-4.2,0.3c1.7,0.7,2.6,1.1,4.2,2c0.1,1,0.1,1.6,0.1,2.6c-2-0.1-3,0-5.1,0
		c2,1,3.1,1.5,5.2,2.7c0,0.9,0,1.4,0.1,2.2c-1.9-0.3-2.8-0.4-4.6-0.7c1.8,1,2.8,1.5,4.6,2.5c0.1,1,0.1,1.6,0.1,2.5
		c-1.7,0.1-2.4,0.1-4,0.1c1.7,1,2.4,1.6,4,2.5c0,0.9,0,1.5,0,2.4c-1.8,0-2.5,0-4.4-0.1c1.8,0.9,2.6,1.3,4.3,2.3c0,0.9,0,1.4,0,2.3
		c-1.5,0.4-2.4,0.5-4.1,0.9c1.6,0.4,2.4,0.6,4,1.2c0,0.9,0,1.5,0,2.4c-1.6,0.5-2.5,0.8-4.1,1.4c1.7,0.3,2.5,0.5,4.1,0.7
		c0.1,1,0.1,1.6,0.1,2.5c-1.8,0.5-2.7,0.8-4.6,1.2c1.9,0.5,2.8,0.6,4.7,1c0.1,1,0.1,1.4,0.2,2.5c-1.9,0.7-2.8,0.9-4.8,1.5
		c2,0.3,3,0.4,5.1,0.6c0.4,1.3,0.5,2,0.8,3.4c-2.4,0.3-3.7,0.4-6.3,0.6c0,0,6.7,1.3,7.8,1.3C271,85,268.3,12.2,255.5,14z"/>
</g>
<g>
	<path fill="#8DC63F" stroke="#B8D105" stroke-width="1.0732" stroke-miterlimit="10" d="M246.9,12.7c-2.2,1.3-3.6,2.4-3.6,2.4
		c0.3,0.7,0.4,1,0.8,1.7c1.4,0.2,2.1,0.4,3.5,0.7c-1.5,0.4-2.2,0.7-3.7,1.2c0.2,0.9,0.3,1.4,0.5,2.3c1.4,0.4,2.3,0.7,3.8,1.2
		c-1.6,0.3-2.3,0.4-4,0.7c-0.1,1.1-0.1,1.6-0.2,2.6c1.2,0.4,1.7,0.5,2.9,0.9c-1.2,0.4-1.8,0.5-2.9,0.8c-0.1,1.1-0.1,1.4-0.2,2.4
		c1.3,0.7,1.8,1,3.1,1.7c-1.3,0.1-2,0.2-3.3,0.2c-0.1,1.4-0.3,2-0.3,3.3c1.6,0.6,2.4,0.8,4.1,1.3c-1.7,0.1-2.5,0.2-4.2,0.3
		c-0.2,1.2-0.2,1.7-0.2,2.8c1.7,0.8,2.5,1.2,4.1,2.1c-1.8,0-2.5,0-4.2,0.1c-0.1,1.1-0.1,1.6-0.1,2.5c2.1,0.9,3,1.4,5,2.2
		c-2.1,0.1-3.1,0.2-5.1,0.4c-0.1,0.8-0.1,1.3-0.1,2.2c1.8,0.6,2.7,0.9,4.6,1.4c-1.8,0.1-2.8,0.4-4.6,0.5c-0.1,1.1,0,1.5-0.1,2.5
		c1.7,0.8,2.4,1.2,4,2c-1.6,0.3-2.5,0.4-4,0.8c0,0.9,0,1.5,0,2.5c1.7,0.7,2.6,1.1,4.4,1.9c-1.7,0.2-2.6,0.1-4.4,0.4
		c0,0.9,0,1.4,0,2.3c1.6,1.2,2.3,1.7,4,2.7c-1.6-0.2-2.4-0.4-4-0.6c0,0.9,0,1.5,0,2.4c1.6,1.4,2.4,1.9,4.1,3.1c-1.6-0.4-2.4-0.6-4-1
		c-0.1,1.1,0,1.5-0.1,2.5c1.8,1.3,2.7,2.1,4.6,3.3c-1.9-0.5-2.9-0.7-4.7-1.1c-0.2,1-0.2,1.5-0.3,2.3c1.9,1.4,2.8,2.1,4.7,3.6
		c-2.1-0.7-3-1-5.1-1.6c-0.3,1.2-0.5,1.7-0.9,3.1c2.5,1.5,3.7,2,6.2,3.3c0,0-5.9,1-7,0.3C231,81,233.2,15.3,246.9,12.7z"/>
</g>
</svg>
