<?xml version="1.0" encoding="utf-8"?>
<!-- Generator: Adobe Illustrator 16.0.0, SVG Export Plug-In . SVG Version: 6.00 Build 0)  -->
<!DOCTYPE svg PUBLIC "-//W3C//DTD SVG 1.1//EN" "http://www.w3.org/Graphics/SVG/1.1/DTD/svg11.dtd">
<svg version="1.1" id="Layer_1" xmlns="http://www.w3.org/2000/svg" xmlns:xlink="http://www.w3.org/1999/xlink" x="0px" y="0px"
	 width="400px" height="100px" viewBox="0 0 400 100" enable-background="new 0 0 400 100" xml:space="preserve">
<path fill="#0E9B1B" stroke="#000000" stroke-width="0.6122" stroke-miterlimit="10" d="M349,15.5c1.6,0,2.7-2.4,4.2-1
	c5.4,5.1,9.3,18.9,9.3,35.1c0,20.5-6.2,37.2-14,37.2s-14-16.7-14-37.2c0-15.7,3.6-29.1,8.8-34.6C345,13.3,347.2,15.5,349,15.5z"/>
<path fill="#A8227E" stroke="#000000" stroke-miterlimit="10" d="M49.1,23.2c3.5,0,6.6-10.4,9.8-9.5C74.5,18.2,86,32.6,86,49.6
	c0,17.1-11.6,31.6-27.4,35.9c-3.1,0.9-6.5-2.4-9.9-2.4c-3.9,0-7.6,3.1-11.1,2c-15.1-4.8-26-18.8-26-35.5c0-15,8.9-28,21.8-33.9
	C38.1,13.6,43.6,23.2,49.1,23.2z"/>
<path fill="#A8227E" stroke="#000000" stroke-width="0.8211" stroke-miterlimit="10" d="M149,20.7c2.1,0,3.9-7.9,5.8-7.2
	c11,4,19.1,18.6,19.1,36.1c0,16.7-7.4,30.8-17.6,35.5c-2.4,1.1-4.5-0.5-7.1-0.5c-2.7,0-5.7,1.5-8.2,0.3C131,80,123.7,66,123.7,49.5
	c0-17.5,8.1-32.2,19.1-36.1C144.7,12.8,146.9,20.7,149,20.7z"/>
<path fill="#A8227E" stroke="#000000" stroke-width="0.636" stroke-miterlimit="10" d="M249.3,18c1.6,0,2.5-5,4-3.9
	c6.1,4.7,10.6,18.8,10.6,35.5c0,16.7-4.5,30.8-10.6,35.5c-1.4,1.1-2.7-2.3-4.3-2.3c-2,0-4.2,3-6,1.1c-5.5-5.6-9.3-18.9-9.3-34.4
	c0-16.8,4.5-31,10.7-35.6C245.8,13,247.8,18,249.3,18z"/>
<path fill="#A8227E" stroke="#000000" stroke-width="0.4972" stroke-miterlimit="10" d="M349,14.8c5.1,0,9,14.2,9,34.8
	c0,20.5-4.1,37.2-9.2,37.2c-5.1,0-9.2-16.7-9.2-37.2C339.6,29.1,343.9,14.8,349,14.8z"/>
</svg>
