<?xml version="1.0" encoding="utf-8"?>
<!-- Generator: Adobe Illustrator 16.0.0, SVG Export Plug-In . SVG Version: 6.00 Build 0)  -->
<!DOCTYPE svg PUBLIC "-//W3C//DTD SVG 1.1//EN" "http://www.w3.org/Graphics/SVG/1.1/DTD/svg11.dtd">
<svg version="1.1" xmlns="http://www.w3.org/2000/svg" xmlns:xlink="http://www.w3.org/1999/xlink" x="0px" y="0px"
	 width="1100.2px" height="275px" viewBox="0 0 1100.2 275" enable-background="new 0 0 1100.2 275" xml:space="preserve">
<g id="Layer_1">
	<image overflow="visible" width="271" height="219" xlink:href="mob.flytrap.png"  transform="matrix(1 0 0 1 827 27.5)">
	</image>
	<path fill="#8DC63F" stroke="#009444" stroke-width="0.6926" stroke-miterlimit="10" d="M486.5,204.3c-0.2-4.8-1.7-8.6-3.3-8.5l0,0
		c0.1-3.5-7.1-14.2-16.4-24.4c-9-9.9-42.1-18.7-52.5-19.6c1.9-10.7,2.8-38.6,0.9-50.9c-1.9-12.2-7.8-23.1-9.3-26.7
		c1.7-0.7,3.7-2.2,5.4-4.4c2.8-3.8,5.1-10.7,3.8-11.7c-1.3-1-6.4,3.8-9.3,7.6c-2.8,3.8-4.1,7.7-2.8,8.7c0.1,0.1,0.2,0.1,0.3,0.2
		c-1.4,4.3,3.6,14,1.4,26.3c-2.3,13,2.9,43.4,6.4,52.6c-11.2,3.5-35,14.1-44.9,20.8c-10.1,6.9-20.4,9.1-24,10.9
		c-1.2-1.5-5.6-0.2-8.4,1.2c-4.3,2-8.9,7.8-8.2,9.3c0.7,1.5,6.8-1.1,11.1-3.1c3.7-1.8,4.8-3.7,6-4.7c4.4,1,16-0.7,28.1-4.1
		c12.5-3.5,37.1-20.9,44.3-28.1c9.7,6.2,34.7,18.3,45.4,24.2c11.7,6.4,18.5,15.7,21.4,17c-1.2,1.5-2.2,4.4-2.1,7.8
		c0.2,4.8,2.8,11.5,4.4,11.4C485.8,215.9,486.8,209,486.5,204.3z"/>
	<path fill="none" stroke="#009444" stroke-width="0.6926" stroke-miterlimit="10" d="M405,78.5c10.2,22.4,1.4,42.4,7.7,73.2"/>
	<path fill="none" stroke="#009444" stroke-width="0.6926" stroke-miterlimit="10" d="M419.4,154.6c34.7,8.7,46.3,20.4,59,36.2"/>
	<path fill="none" stroke="#009444" stroke-width="0.6926" stroke-miterlimit="10" d="M407.2,157.3c-20.6,18.9-41.1,24.6-58.8,27.8"
		/>
	<polyline fill="#8DC63F" stroke="#17E007" stroke-width="0.6344" stroke-miterlimit="10" points="581.4,196 579,193.1 581.6,194.7 
		582.8,193.1 581.2,191.2 583.6,192.2 584.7,191.2 583.5,189.2 585.8,190.4 587.1,189.5 586.1,187.7 588.1,188.9 589.4,188.2 
		588.7,186.3 590.6,187.6 591.8,187.1 591.8,184.7 593.1,186.5 594.5,186 594.9,183.7 596.1,185.5 597.6,185.1 598,182.5 
		598.7,184.8 600,184.5 600.4,181.7 601.5,184.2 603,183.9 603.4,181.7 604.3,183.7 606,183.6 606.6,181.4 607,183.5 609,183.5 
		609.6,181.8 610.1,183.5 611.6,183.6 612.5,182.2 612.5,183.7 614,183.9 615,182.1 615,184.1 616.3,184.7 617.5,183.1 617.2,184.9 
		618,185.6 619.9,184.4 	"/>
	<polyline fill="#8DC63F" stroke="#17E007" stroke-width="0.6344" stroke-miterlimit="10" points="625.2,199.8 627.5,202.8 
		625,201.1 623.7,202.7 625.3,204.7 622.9,203.6 621.8,204.6 623,206.6 620.7,205.4 619.5,206.3 620.4,208.1 618.4,206.9 
		617.1,207.6 617.8,209.6 616,208.2 614.7,208.7 614.7,211.1 613.4,209.2 612,209.7 611.6,212.1 610.4,210.2 608.9,210.7 
		608.5,213.2 607.8,211 606.5,211.3 606,214.1 604.9,211.6 603.4,211.8 603.1,214 602.1,212 600.4,212.1 599.8,214.3 599.4,212.2 
		597.5,212.2 596.9,213.9 596.3,212.2 594.9,212.1 594,213.5 594,211.9 592.5,211.7 591.4,213.6 591.4,211.6 590.2,211 588.9,212.5 
		589.2,210.7 588.5,210 586.6,211.2 	"/>
	<path fill="#8DC63F" stroke="#238203" stroke-width="0.9634" stroke-miterlimit="10" d="M778.1,213.5L778.1,213.5
		c0.2-4.6-10.5-18.6-24.3-31.9c-8-7.8-23.7-13.7-38.2-17.5c-5.5-1.4-6.8-2.8-10.5-5.7c-2.7-2.2,2.7-8.2,1.3-10.4
		c-2.1-1.8-5.6,6.4-8.2-4.1c-1-3.9-8.1-2.6-9-7.5c-3.1-18-8.9-40.1-10.7-50.5C675.7,70,667,55.7,664.7,51c2.5-0.9-6.2-1-4.3,0.3
		c0.1,0.1,0.3,0.1,0.4,0.3c-2.1,5.6,5.3,18.3,2.1,34.4c-2.4,11.9,1.7,38.3,6.1,57.1c0.6,2.4-3,3.1-2.4,5.3c1.3,4.9-2.7,2.4-1.6,4.9
		c-4.6,1.3-1.3,8.9-3.3,9.6c-5,1.8-6,5.3-10.7,7.7c-5.6,2.8-11.8,6.2-20.1,10.6c-19,9.4-30.2,11.9-35.5,14.2c-1.8-2-1,4.8,0.7,3.5
		c6.5,1.3,23.7-0.9,41.6-5.4c13.5-3.3,25.6-8.8,35.2-15.2c2-1.3,3.2,0.3,5-1.1c1.4-1.1,5,4,6.2,2.9c2.2,1.2,2.7,0.8,5.6,2
		c2.5,1,5.6-5.5,8.5-4.6c15.4,5.2,34.9,9.8,46.3,15.3c17.3,8.4,27.4,20.5,31.7,22.2C774.4,216.9,780.5,213.4,778.1,213.5z"/>
	<polygon fill="#D61253" stroke="#17E007" stroke-width="1.1241" stroke-miterlimit="10" points="762.6,200.9 771.1,196.3 
		796.8,226.4 785.4,232.6 	"/>
	<path fill="none" stroke="#238203" stroke-width="0.9611" stroke-miterlimit="10" d="M664.2,55.6c15.1,29.2,8,64.8,17.4,104.9"/>
	<path fill="none" stroke="#238203" stroke-width="0.9541" stroke-miterlimit="10" d="M692.1,163.2c51,11.2,60.9,20.4,79.6,40.9"/>
	<path fill="none" stroke="#238203" stroke-width="0.9541" stroke-miterlimit="10" d="M674.2,166.7C644,191.1,625,191,599,195.1"/>
	<g>
		<path fill="#EE204B" stroke="#C6B705" stroke-width="0.9879" stroke-miterlimit="10" d="M619.3,187.9c-1.3-4.3-10.9-5.6-21.5-2.9
			s-18.1,8.3-16.8,12.6c1.3,4.3,11.3,2.7,21.9,0C613.4,194.9,620.6,192.1,619.3,187.9z"/>
		<path fill="#EE204B" stroke="#C6B705" stroke-width="0.9879" stroke-miterlimit="10" d="M625.4,198.4c-1.3-4.3-10.5-3.7-21.1-1.1
			c-10.6,2.7-18.6,6.5-17.3,10.8c1.3,4.3,11,4.7,21.5,2C619.2,207.5,626.7,202.7,625.4,198.4z"/>
	</g>
	<polyline fill="#8DC63F" stroke="#17E007" stroke-width="0.6719" stroke-miterlimit="10" points="667.8,29.4 671.6,27.5 
		669.3,29.7 671.1,31 673.6,29.7 672.2,31.8 673.3,32.9 675.8,32 674.1,33.9 675.1,35.2 677.3,34.4 675.7,36.2 676.5,37.5 678.9,37 
		677,38.6 677.6,39.8 680.5,40 678.1,41.1 678.6,42.4 681.4,43 679.1,43.9 679.5,45.3 682.5,45.9 679.7,46.4 680,47.6 683.3,48.3 
		680.2,49 680.4,50.5 683.1,51 680.5,51.7 680.5,53.3 683.1,54 680.5,54.2 680.4,56 682.3,56.7 680.2,57.1 680,58.4 681.6,59.3 
		679.8,59.2 679.4,60.6 681.5,61.7 679.1,61.6 678.3,62.6 680,63.9 677.9,63.5 677,64.2 678.2,66 	"/>
	<polyline fill="#8DC63F" stroke="#17E007" stroke-width="0.6719" stroke-miterlimit="10" points="659.2,69.5 655.4,71.4 
		657.6,69.2 655.8,67.9 653.4,69.2 654.8,67.1 653.7,66 651.2,66.9 652.9,64.9 652,63.7 649.7,64.4 651.3,62.6 650.6,61.4 
		648.2,61.8 650,60.3 649.4,59 646.6,58.8 648.9,57.8 648.5,56.4 645.7,55.9 648,54.9 647.6,53.5 644.6,52.9 647.4,52.4 647.1,51.2 
		643.8,50.5 646.9,49.8 646.8,48.4 644.1,47.8 646.7,47.1 646.7,45.6 644.1,44.8 646.7,44.6 646.8,42.8 644.9,42.1 647,41.8 
		647.2,40.4 645.6,39.5 647.5,39.6 647.8,38.3 645.7,37.1 648.1,37.3 649,36.2 647.3,34.9 649.4,35.3 650.3,34.7 649.1,32.9 	"/>
	<g>
		<path fill="#EE204B" stroke="#CEBF00" stroke-width="1.0483" stroke-miterlimit="10" d="M674.2,65c5.3-0.8,7.7-9.6,5.4-19.6
			c-2.3-10-8.5-17.4-13.8-16.6c-5.3,0.8-4.2,10.1-1.9,20.1C666.2,59,668.9,65.8,674.2,65z"/>
		<path fill="#EE204B" stroke="#CEBF00" stroke-width="1.0483" stroke-miterlimit="10" d="M660.8,69.6c5.3-0.8,5.5-9.3,3.2-19.3
			c-2.3-10-6.2-17.7-11.5-16.9c-5.3,0.8-6.7,9.7-4.4,19.7C650.4,63.1,655.5,70.4,660.8,69.6z"/>
	</g>
	<g>
		<path fill="#8DC63F" stroke="#B3CC00" stroke-width="0.7967" stroke-miterlimit="10" d="M763.3,195.3c2.3,0.2,3.9,0.2,3.9,0.2
			c0,0.5,0.1,0.7,0.1,1.2c-1.1,0.5-1.6,0.8-2.6,1.3c1.4-0.2,2.1-0.3,3.5-0.4c0.3,0.6,0.4,0.8,0.6,1.4c-1,0.7-1.6,1-2.6,1.6
			c1.4-0.3,2.1-0.4,3.6-0.7c0.5,0.5,0.8,0.8,1.2,1.3c-0.8,0.5-1.2,0.7-2,1.2c1.1-0.2,1.7-0.2,2.8-0.4c0.5,0.5,0.7,0.7,1.2,1.3
			c-0.8,0.7-1.1,1.1-1.9,1.8c1.1-0.3,1.7-0.5,2.8-0.8c0.7,0.7,1,1,1.6,1.7c-1.1,0.7-1.7,1.1-2.8,1.8c1.4-0.4,2.1-0.6,3.6-1
			c0.6,0.6,0.8,0.9,1.4,1.5c-1,0.9-1.5,1.4-2.5,2.3c1.4-0.5,2.1-0.7,3.5-1.1c0.5,0.5,0.7,0.8,1.2,1.3c-1.3,1-1.9,1.5-3.2,2.6
			c1.7-0.5,2.6-0.8,4.4-1.2c0.4,0.5,0.6,0.7,1,1.1c-1.3,0.8-1.9,1.2-3.2,2c1.6-0.4,2.4-0.6,4-1c0.5,0.5,0.7,0.8,1.1,1.3
			c-1,0.9-1.5,1.3-2.5,2.1c1.5-0.3,2.2-0.4,3.6-0.7c0.4,0.5,0.6,0.8,1,1.3c-1.1,0.9-1.6,1.3-2.8,2.2c1.5-0.4,2.2-0.6,3.7-1
			c0.4,0.5,0.6,0.7,1,1.2c-0.8,1-1.3,1.5-2.2,2.6c1.2-0.6,1.8-0.9,3-1.4c0.4,0.5,0.6,0.8,1,1.3c-0.8,1.1-1.2,1.7-2,2.8
			c1.2-0.7,1.8-1,2.9-1.7c0.5,0.5,0.7,0.8,1.1,1.3c-0.9,1.2-1.4,1.8-2.4,3c1.4-0.7,2-1.1,3.4-1.9c0.5,0.5,0.7,0.7,1.2,1.2
			c-0.9,1.3-1.4,1.9-2.4,3.2c1.4-0.9,2.1-1.3,3.5-2.3c0.8,0.5,1.2,0.8,2,1.4c-1.4,1.4-2.2,2.1-3.7,3.5c0,0,4.8-2.7,5.5-3.3
			C805.9,223,776.1,190,763.3,195.3z"/>
	</g>
	<g>
		<path fill="#8DC63F" stroke="#B8D105" stroke-width="0.7967" stroke-miterlimit="10" d="M764.3,193.4c-0.8,1.8-1.3,3.1-1.3,3.1
			c0.5,0.2,0.7,0.3,1.2,0.5c1-0.6,1.5-0.9,2.5-1.4c-0.8,1-1.1,1.5-1.8,2.5c0.5,0.4,0.8,0.6,1.3,1c1.1-0.5,1.7-0.8,2.9-1.3
			c-0.9,1-1.3,1.4-2.2,2.4c0.4,0.6,0.6,0.9,1,1.5c0.9-0.4,1.3-0.6,2.2-1c-0.6,0.8-0.9,1.2-1.5,1.9c0.4,0.6,0.5,0.8,0.9,1.4
			c1.1-0.3,1.6-0.4,2.7-0.7c-0.8,0.7-1.2,1.1-2,1.8c0.5,0.8,0.7,1.2,1.2,1.9c1.3-0.5,1.9-0.8,3.1-1.4c-1,0.9-1.5,1.4-2.5,2.3
			c0.4,0.7,0.6,1,1.1,1.6c1.4-0.4,2.1-0.6,3.5-1c-1.1,0.9-1.6,1.3-2.6,2.2c0.4,0.6,0.6,0.9,1,1.4c1.7-0.6,2.5-0.8,4.1-1.4
			c-1.3,1.1-1.9,1.7-3.1,2.8c0.3,0.5,0.5,0.7,0.9,1.2c1.4-0.6,2.1-0.9,3.5-1.6c-1.1,1-1.6,1.6-2.7,2.6c0.4,0.6,0.6,0.8,1,1.4
			c1.4-0.4,2-0.6,3.4-1c-0.9,1-1.4,1.5-2.2,2.5c0.4,0.5,0.6,0.8,1.1,1.3c1.4-0.5,2.1-0.7,3.6-1.2c-1,1-1.6,1.4-2.6,2.4
			c0.4,0.5,0.6,0.7,1,1.2c1.5-0.2,2.2-0.3,3.7-0.6c-1.1,0.7-1.7,1-2.8,1.7c0.4,0.5,0.6,0.8,1,1.3c1.6-0.1,2.3-0.2,3.9-0.4
			c-1.2,0.6-1.8,0.9-3,1.5c0.4,0.6,0.6,0.8,1,1.4c1.7-0.2,2.6-0.3,4.3-0.6c-1.4,0.7-2.1,1.1-3.4,1.8c0.3,0.6,0.5,0.9,0.8,1.4
			c1.8-0.2,2.7-0.3,4.5-0.5c-1.6,0.7-2.3,1-3.9,1.7c0.3,0.8,0.4,1.2,0.8,2.1c2.2-0.5,3.2-0.8,5.3-1.4c0,0-4.9,2.6-5.9,2.8
			C777.6,236.2,753,203.6,764.3,193.4z"/>
	</g>
	<path fill="#8DC63F" stroke="#000000" stroke-width="0.4987" stroke-miterlimit="10" d="M184.9,188.6c-0.1-3.5-1.2-6.2-2.4-6.1l0,0
		c0.1-2.5-5.1-10.2-11.8-17.6c-6.5-7.1-24.7-10.5-32.2-11.2c1.4-7.7-3-32.8-4.4-41.6c-1.4-8.8-5.6-16.6-6.7-19.2
		c1.2-0.5,2.7-1.6,3.9-3.2c2-2.7,3.7-7.7,2.7-8.4c-1-0.7-4.6,2.7-6.7,5.5c-2,2.7-3,5.5-2,6.3c0.1,0.1,0.1,0.1,0.2,0.1
		c-1,3.1,2.6,10.1,1,18.9c-1.7,9.4,4.2,35,6.7,41.6c-8.1,2.5-12.8,5.2-22.3,10.9c-9.2,5.2-14.7,6.6-17.3,7.9c-0.9-1.1-4-0.1-6,0.9
		c-3.1,1.4-6.4,5.6-5.9,6.7c0.5,1.1,4.9-0.8,8-2.2c2.7-1.3,3.5-2.7,4.3-3.4c3.2,0.7,11.5-0.5,20.2-3c9-2.5,16.6-7.2,21.8-12.4
		c7,4.5,22.4,7.7,30.1,12c8.4,4.6,13.3,11.3,15.4,12.2c-0.9,1.1-1.6,3.2-1.5,5.6c0.1,3.5,2,8.3,3.2,8.2
		C184.4,196.9,185.1,192,184.9,188.6z"/>
	<path fill="none" stroke="#000000" stroke-width="0.4975" stroke-miterlimit="10" d="M126.9,95.9c7.3,16.1,3.9,35.7,8.4,57.8"/>
	<path fill="none" stroke="#000000" stroke-width="0.4975" stroke-miterlimit="10" d="M140.1,155.8c24.9,6.2,29.8,11.3,39,22.7"/>
	<path fill="none" stroke="#000000" stroke-width="0.4975" stroke-miterlimit="10" d="M131.3,157.7c-14.8,13.6-20.4,12-33.1,14.3"/>
</g>
<g id="Layer_2">
	<polygon fill="#8DC63F" stroke="#FFFFFF" stroke-miterlimit="10" points="918,58 940,38 978.5,38 992,143 1078.5,143 1091.5,179.5 
		1071.5,204.1 969.5,173.5 874.5,227.5 834,204.1 837.5,152.5 933,146 	"/>
</g>
</svg>
